PathFileType	4	(X/Y/Z)	/Users/niels/Desktop/University/Third Semester/Perception and Action/Exam/Gymnastics Motion Tracking/Code for Gym Tracking/Analyzed Data/Webcam_Backflip/id2002_2_baseline_Sports2D/id2002_2_baseline_Sports2D_px_person00.trc
DataRate	CameraRate	NumFrames	NumMarkers	Units	OrigDataRate	OrigDataStartFrame	OrigNumFrames
29.798657718120804	29.798657718120804	12	22	m	29.798657718120804	18	149
Frame#	Time	Hip			RHip			RKnee			RAnkle			RBigToe			RSmallToe			RHeel			LHip			LKnee			LAnkle			LBigToe			LSmallToe			LHeel			Neck			Head			Nose			RShoulder			RElbow			RWrist			LShoulder			LElbow			LWrist		
		X1	Y1	Z1	X2	Y2	Z2	X3	Y3	Z3	X4	Y4	Z4	X5	Y5	Z5	X6	Y6	Z6	X7	Y7	Z7	X8	Y8	Z8	X9	Y9	Z9	X10	Y10	Z10	X11	Y11	Z11	X12	Y12	Z12	X13	Y13	Z13	X14	Y14	Z14	X15	Y15	Z15	X16	Y16	Z16	X17	Y17	Z17	X18	Y18	Z18	X19	Y19	Z19	X20	Y20	Z20	X21	Y21	Z21	X22	Y22	Z22
18	0.6040540540540541	0.9758497945262523	-0.7128794464921875	0.0	1.0703890588153624	-0.7199490362833815	0.0	1.1062836551853479	-1.0578198762957487	0.0	1.0888439842197333	-1.0748928214476712	0.0			0.0			0.0			0.0	0.8963082407455878	-0.7230240609944646	0.0	0.9193035837071853	-1.0635439829846876	0.0	1.0741945974725995	-1.0583568097669205	0.0			0.0			0.0			0.0	1.044424224301944	-0.21026521223418088	0.0	1.1806893770153748	-0.044106238732170594	0.0	1.1398776149956011	-0.16254819314566815	0.0	1.13958248176896	-0.20742966043528316	0.0	1.1582694837138288	-0.48391461430028243	0.0	1.2296922376014594	-0.7199638923628328	0.0	0.8912938829507631	-0.2681775370737747	0.0	0.9123838437204629	-0.4865016005569484	0.0	1.0258860700364973	-0.6881344869331626	0.0
19	0.6376126126126127	0.9812693077124159	-0.7154425755588116	0.0	1.0754758343973638	-0.7233494353890254	0.0	1.1049612426496636	-1.0566129676939002	0.0	1.0888439515872137	-1.0748928194757685	0.0			0.0			0.0			0.0	0.9018275110734081	-0.725457764477037	0.0	0.9226144628149275	-1.0627308532072122	0.0	1.0741947439018227	-1.0583573450446568	0.0			0.0			0.0			0.0	1.050495903716968	-0.21348539178359005	0.0	1.1861701719966546	-0.04833295001623747	0.0	1.1469868966213412	-0.16826773873765336	0.0	1.1453208227901248	-0.2128299092313675	0.0	1.1627136692007467	-0.48943382978621847	0.0	1.2330186667603429	-0.7257409195477851	0.0	0.8983392135866981	-0.2704379657879637	0.0	0.9233442745021021	-0.48715984389903016	0.0	1.0344508120100078	-0.6885737984849147	0.0
20	0.6711711711711712	0.9876235721576496	-0.7175843332031474	0.0	1.0812577514022135	-0.7259214582280747	0.0	1.1060849258858887	-1.0558314623612157	0.0	1.0888439003502228	-1.0748928165224358	0.0			0.0			0.0			0.0	0.907926169997063	-0.7270935758921849	0.0	0.9270414317027736	-1.0621166588283786	0.0	1.0741949117524046	-1.0583588515370672	0.0			0.0			0.0			0.0	1.0572337282730977	-0.21601026189347902	0.0	1.1926018827533258	-0.05207422359824558	0.0	1.1550840632344483	-0.17349142544110266	0.0	1.152001740507699	-0.21843981148057984	0.0	1.1679397674401932	-0.49514893261354714	0.0	1.2381193138991349	-0.7331957719623888	0.0	0.9055190970597575	-0.27191548977988356	0.0	0.9307888425388535	-0.488827765548756	0.0	1.0371301987182542	-0.6901594659135559	0.0
21	0.7047297297297298	0.9948102152425098	-0.7190486356920308	0.0	1.0875068274673743	-0.7273972726985926	0.0	1.1090311240344959	-1.0555193422897649	0.0	1.0888438375346665	-1.0748928131220155	0.0			0.0			0.0			0.0	0.9147072215888296	-0.727634813765126	0.0	0.9329296649979028	-1.0616055242238602	0.0	1.0741950217827902	-1.0583617260746694	0.0			0.0			0.0			0.0	1.06458732595399	-0.21778015003692167	0.0	1.2001039664826414	-0.05512859636352359	0.0	1.164078380342267	-0.1782801057886818	0.0	1.1594346470789396	-0.2240608511986273	0.0	1.1739162181851948	-0.5007638693486819	0.0	1.2448311230684528	-0.7416317772983082	0.0	0.9130560365476115	-0.27222900242139675	0.0	0.93500884973524	-0.49135728344025537	0.0	1.032787428499578	-0.6936216237380165	0.0
22	0.7382882882882884	1.0025055955547426	-0.7194493556944345	0.0	1.0938251319885786	-0.727509380044055	0.0	1.1130529757561836	-1.0555962751717973	0.0	1.088843787728742	-1.074892810861168	0.0			0.0			0.0			0.0	0.9220786156802298	-0.7268385094344383	0.0	0.940464126533372	-1.0611174044163156	0.0	1.0741949198258298	-1.0583660357673423	0.0			0.0			0.0			0.0	1.072449338541667	-0.21890719783709714	0.0	1.2086820750154879	-0.05750590813205493	0.0	1.173796542316237	-0.182663246586099	0.0	1.167265387369873	-0.22951844455767656	0.0	1.180706230708383	-0.5062338449790594	0.0	1.253025416062402	-0.7504223287528179	0.0	0.9211414447501814	-0.271248223558871	0.0	0.9364076860483199	-0.49463559661297035	0.0	1.0203928832344737	-0.6993371315263542	0.0
23	0.7718468468468469	1.0103143401196988	-0.7185142724648915	0.0	1.0998032274076672	-0.7261649753167301	0.0	1.1174759881814076	-1.0558471256332036	0.0	1.0888438019931144	-1.0748928128386692	0.0			0.0			0.0			0.0	0.929799916459105	-0.7247367195044542	0.0	0.9497354982987518	-1.0606131544091064	0.0	1.0741943709781396	-1.0583710051209119	0.0			0.0			0.0			0.0	1.0806483602574375	-0.21967615885566505	0.0	1.2182589533783645	-0.059481362429106434	0.0	1.1839355331628543	-0.18654542239922012	0.0	1.1749882156883105	-0.2347331742304182	0.0	1.188383026354092	-0.5115396666983222	0.0	1.2625631929145886	-0.7590906644414729	0.0	0.9297946984476916	-0.26926307129784427	0.0	0.935350229451049	-0.49850369663396304	0.0	1.0003189055052213	-0.7068897737197226	0.0
24	0.8054054054054055	1.0178860754484556	-0.7164570780844544	0.0	1.1052115889151954	-0.7237375041970429	0.0	1.1218844865826196	-1.055955364437034	0.0	1.0888439621422616	-1.0748928237908868	0.0			0.0			0.0			0.0	0.9376098740387431	-0.7217876129611691	0.0	0.9606369848353796	-1.0600385384047417	0.0	1.0741930982959342	-1.0583743243463548	0.0			0.0			0.0			0.0	1.088932669412071	-0.22042578546217173	0.0	1.2287331383453972	-0.06151065478459308	0.0	1.194112130097072	-0.1900019007404595	0.0	1.1821140231052634	-0.239681783204463	0.0	1.1969256011019591	-0.5165089418000148	0.0	1.2732547628207136	-0.7672924006611219	0.0	0.9388417516226013	-0.26686232223602346	0.0	0.932481075835879	-0.5025996238512337	0.0	0.9759383709511823	-0.7148338771714495	0.0
25	0.8389639639639641	1.0249824673945014	-0.7139789002284752	0.0	1.1100803085163673	-0.7210386118395549	0.0	1.126229329280826	-1.0556502686342506	0.0	1.088844371014178	-1.0748928493253562	0.0			0.0			0.0			0.0	0.9453394157618936	-0.718655153500952	0.0	0.9725725379507631	-1.0593495066114909	0.0	1.0741909040135946	-1.058371476625779	0.0			0.0			0.0			0.0	1.0970096310926285	-0.221440603748549	0.0	1.239862376972779	-0.06400431260799552	0.0	1.2038785066719295	-0.1933726433048717	0.0	1.188361885792068	-0.24437438398821074	0.0	1.2061149936760565	-0.5209897632386845	0.0	1.2848971035113288	-0.7747594579385318	0.0	0.9480009090364366	-0.26461781014389474	0.0	0.9287721819383316	-0.5063119782763473	0.0	0.9529966103075886	-0.7209068279328886	0.0
26	0.8725225225225226	1.0315127531115604	-0.7118741260247045	0.0	1.1145819420256087	-0.7189487653083958	0.0	1.1307167312000175	-1.054843953961908	0.0	1.088845115157327	-1.0748928934947182	0.0			0.0			0.0			0.0	0.9528869466897552	-0.7159164053148188	0.0	0.9844993734336651	-1.0585462227965785	0.0	1.0741879114386348	-1.05835555102237	0.0			0.0			0.0			0.0	1.1046194699501313	-0.22292574395444453	0.0	1.2511785862510578	-0.06709915084006406	0.0	1.2128014142664092	-0.1969929987587363	0.0	1.1936848414844499	-0.248804295341664	0.0	1.2154759659395655	-0.5250431552680239	0.0	1.2972536508132326	-0.7811129780100345	0.0	0.9569970108884837	-0.26279814803420953	0.0	0.9253114556226745	-0.5088810557681607	0.0	0.9369339019889685	-0.7224447050736718	0.0
27	0.9060810810810812	1.0374545404446422	-0.7106316716141007	0.0	1.1187982745254368	-0.7179911857672961	0.0	1.135490312977969	-1.053672801834785	0.0	1.0888461850882485	-1.0748929539359815	0.0			0.0			0.0			0.0	0.9600882019306491	-0.7139418304188928	0.0	0.9956150531137142	-1.05765836553271	0.0	1.0741849410710356	-1.0583183541372734	0.0			0.0			0.0			0.0	1.1115858294742458	-0.22492489048148603	0.0	1.2621521231101263	-0.07064373861513379	0.0	1.2206614433715972	-0.20100376679068385	0.0	1.1981294567176028	-0.25278643917521376	0.0	1.2243505469263825	-0.5287487884880944	0.0	1.30999128320446	-0.7857259910239979	0.0	0.9655994147797543	-0.261304421358207	0.0	0.923113179721213	-0.5096743447737639	0.0	0.931194811978481	-0.7167762784012411	0.0
28	0.9396396396396398	1.0427515054489433	-0.7102727265435268	0.0	1.122604888180404	-0.7180781964988429	0.0	1.1404579485095772	-1.0524297449549542	0.0	1.0888473448876181	-1.0748930142890027	0.0			0.0			0.0			0.0	0.9667224500254608	-0.712798230759571	0.0	1.005983986560241	-1.0566867931356112	0.0	1.074183966032922	-1.0582539413270178	0.0			0.0			0.0			0.0	1.117838775418856	-0.22720128100239434	0.0	1.2723702349053925	-0.07436367414285495	0.0	1.2274697365278282	-0.2053630434391781	0.0	1.201737289044048	-0.2558935545690015	0.0	1.2320791433800988	-0.5318860645059628	0.0	1.3226952427542806	-0.7878874161537055	0.0	0.9735816807103757	-0.2598641859559158	0.0	0.9229888353762705	-0.5084787952423269	0.0	0.9372999201335983	-0.7017441207386379	0.0
29	0.9731981981981983	1.047312232923228	-0.7104678118252504	0.0	1.1257347862813607	-0.7186763448110748	0.0	1.145373545805776	-1.0513890853327224	0.0	1.0888479643065982	-1.0748930349794827	0.0			0.0			0.0			0.0	0.9726658548408943	-0.7122600879186605	0.0	1.0162991654154956	-1.0555497767178053	0.0	1.0741884619410162	-1.0581657011135415	0.0			0.0			0.0			0.0	1.1233923554049083	-0.22929505163245953	0.0	1.2815316041919664	-0.07799706294555157	0.0	1.2333011318327016	-0.20990319961215798	0.0	1.2045392638052501	-0.25767766543660026	0.0	1.2381484657441815	-0.5339475598561362	0.0	1.3349090087057145	-0.7871506720042871	0.0	0.9807453061995078	-0.25830919624981835	0.0	0.9255829276206153	-0.5054430452907174	0.0	0.955281079077228	-0.6762489371097159	0.0
